<?xml version="1.0" standalone="no"?>
<!DOCTYPE svg PUBLIC "-//W3C//DTD SVG 20010904//EN"
 "http://www.w3.org/TR/2001/REC-SVG-20010904/DTD/svg10.dtd">
<svg version="1.0" xmlns="http://www.w3.org/2000/svg"
 width="512.000000pt" height="512.000000pt" viewBox="0 0 512.000000 512.000000"
 preserveAspectRatio="xMidYMid meet">
<metadata>
Created by potrace 1.14, written by Peter Selinger 2001-2017
</metadata>
<g transform="translate(0.000000,512.000000) scale(0.100000,-0.100000)"
fill="#000000" stroke="none">
<path d="M4115 4759 c90 -230 278 -372 572 -433 37 -8 69 -13 71 -12 1 2 -9
29 -24 61 -94 213 -267 347 -547 425 -39 11 -77 20 -84 20 -8 0 -4 -20 12 -61z"/>
<path d="M3916 4556 c-31 -133 -30 -148 15 -237 58 -116 225 -243 361 -274 52
-12 55 -11 153 30 55 23 117 51 138 61 l38 18 -98 31 c-262 83 -436 224 -547
443 -14 28 -28 52 -29 52 -2 0 -15 -56 -31 -124z"/>
<path d="M3595 4403 c44 -326 194 -514 479 -602 104 -32 254 -55 319 -49 l35
3 -19 50 -19 50 -53 2 c-135 5 -325 98 -443 218 -85 85 -135 168 -167 272 -25
82 -25 83 -110 98 l-29 6 7 -48z"/>
<path d="M3355 4423 c-177 -92 -123 -378 120 -634 147 -155 299 -256 485 -321
81 -28 115 -33 225 -33 76 1 109 5 137 19 44 21 94 69 101 97 5 17 -1 19 -46
20 -64 1 -117 6 -183 20 -28 5 -64 12 -80 15 -50 8 -156 44 -224 76 -284 131
-446 385 -479 751 -1 11 -23 8 -56 -10z"/>
<path d="M2147 4015 c-84 -25 -146 -56 -174 -88 -44 -49 -183 -533 -219 -762
-4 -27 -9 -52 -9 -55 -1 -3 -5 -27 -10 -55 -4 -27 -9 -59 -11 -69 -3 -19 -17
-123 -29 -218 -3 -27 -2 -48 3 -48 5 0 58 21 118 46 115 48 284 113 345 133
40 13 36 2 55 155 3 25 18 118 40 251 2 17 11 66 19 110 8 44 17 100 20 125 3
25 8 52 10 60 3 8 7 31 9 50 5 34 33 211 41 260 3 14 8 46 11 71 6 46 6 47
-24 53 -47 11 -117 4 -195 -19z"/>
<path d="M2535 3896 c-8 -51 -14 -87 -21 -135 -4 -25 -8 -55 -10 -66 -2 -11
-26 -153 -53 -315 -52 -307 -66 -410 -59 -410 3 0 66 15 141 34 75 19 153 37
174 41 21 3 63 10 93 15 169 28 255 35 455 35 173 0 328 -9 360 -21 16 -7 17
3 10 157 -4 90 -7 172 -7 182 1 10 -32 42 -81 79 -105 80 -239 216 -297 301
-25 37 -52 69 -60 71 -8 3 -42 8 -75 11 -33 3 -71 7 -85 10 -14 2 -50 7 -80
11 -30 3 -66 8 -80 10 -25 3 -172 13 -267 18 -52 2 -53 2 -58 -28z"/>
<path d="M1630 3682 c-175 -94 -401 -255 -550 -390 -356 -323 -560 -736 -596
-1204 -3 -43 -3 -78 1 -78 4 0 32 19 63 43 198 150 594 391 865 526 48 24 87
47 88 50 1 8 4 36 14 131 4 41 9 89 11 105 2 17 6 53 9 80 4 28 8 57 10 65 2
8 7 35 10 60 6 43 61 328 70 360 2 8 13 49 24 90 10 41 26 102 35 134 9 32 15
60 14 61 -2 1 -32 -13 -68 -33z"/>
<path d="M3805 3273 c1 -32 3 -99 4 -149 l1 -90 53 -14 c28 -7 57 -15 63 -17
8 -3 8 13 3 54 -5 32 -11 82 -15 112 -3 30 -8 62 -9 70 -2 9 -4 25 -4 36 -1
15 -12 25 -38 34 -21 8 -43 16 -50 18 -9 3 -11 -11 -8 -54z"/>
<path d="M3138 2915 c-2 -1 -46 -5 -99 -9 -104 -7 -112 -8 -239 -32 -575 -105
-1163 -342 -1767 -713 -248 -152 -553 -373 -621 -450 -51 -58 -83 -273 -60
-401 20 -113 67 -210 101 -210 9 0 52 35 95 78 441 440 951 783 1467 987 233
92 528 179 715 210 19 3 42 8 50 10 31 8 261 40 365 50 147 14 356 20 664 19
l343 0 -5 60 c-7 73 -29 147 -60 201 -19 34 -33 44 -112 75 -81 33 -181 65
-236 75 -12 2 -28 6 -37 9 -59 19 -252 38 -394 41 -92 1 -168 2 -170 0z"/>
<path d="M3417 2274 c-1 -1 -63 -4 -137 -8 -74 -4 -144 -8 -155 -10 -11 -2
-51 -6 -90 -11 -38 -4 -77 -9 -87 -10 -9 -2 -38 -6 -65 -10 -60 -8 -369 -73
-403 -85 -14 -4 -57 -18 -97 -29 l-72 -21 4 -113 c4 -130 15 -305 20 -327 2
-8 7 -44 10 -80 7 -75 8 -82 31 -215 27 -162 28 -170 71 -347 29 -125 38 -148
53 -148 34 0 289 87 308 105 2 2 -16 34 -40 71 -25 38 -47 74 -51 80 -4 7 24
23 76 43 93 37 79 42 145 -53 l32 -47 62 48 c121 96 242 242 325 396 37 70
113 243 113 260 0 2 -21 8 -46 12 -75 11 -73 7 -55 95 9 43 19 82 23 85 3 3
34 1 68 -5 34 -6 63 -10 65 -8 2 2 6 20 9 42 4 21 8 42 11 46 2 3 6 20 9 36 3
16 12 69 21 118 8 49 15 90 15 92 0 2 -169 1 -173 -2z"/>
<path d="M3769 2257 c-2 -40 -7 -71 -34 -201 -14 -72 -27 -134 -28 -140 -1 -5
24 -16 57 -24 l58 -15 -6 -36 c-6 -39 -13 -71 -21 -112 l-6 -26 -62 13 c-34 7
-65 13 -69 14 -3 0 -18 -33 -33 -72 -64 -170 -156 -337 -254 -461 -84 -106
-208 -226 -273 -265 l-26 -15 39 -58 39 -58 -34 -20 c-18 -11 -50 -35 -72 -52
-43 -34 -36 -37 -88 35 -43 60 -39 57 -66 43 -63 -32 -153 -66 -240 -91 -52
-15 -99 -31 -104 -36 -9 -9 51 -200 63 -200 17 0 204 65 281 97 337 143 666
372 830 578 154 194 257 470 286 770 12 120 12 345 1 346 -7 1 -63 2 -124 4
-110 3 -113 3 -114 -18z"/>
<path d="M2095 2010 c-11 -5 -58 -25 -105 -45 -47 -20 -136 -62 -198 -93
l-113 -56 6 -56 c3 -30 7 -82 10 -115 3 -33 8 -71 10 -85 2 -14 7 -50 10 -80
3 -30 7 -62 10 -70 2 -8 7 -37 10 -65 21 -168 118 -552 190 -755 43 -122 113
-260 138 -271 102 -45 349 -48 404 -4 2 1 -15 53 -38 116 -91 255 -195 647
-224 844 -1 11 -5 34 -8 50 -3 17 -9 55 -13 85 -4 30 -8 57 -9 60 -1 3 -5 41
-9 85 -5 44 -10 88 -12 97 -3 18 -16 237 -18 316 -2 48 -9 56 -41 42z"/>
<path d="M1410 1652 c-158 -106 -225 -154 -320 -231 -105 -84 -309 -262 -353
-308 l-28 -30 38 -56 c86 -125 191 -226 352 -335 146 -100 355 -198 486 -228
92 -21 200 -42 203 -39 5 5 -70 205 -77 206 -3 0 -24 2 -46 3 -87 6 -200 19
-208 23 -16 9 13 179 30 176 5 -1 41 -5 79 -9 38 -3 72 -8 76 -10 14 -9 17 14
7 51 -6 20 -12 45 -14 54 -2 9 -15 68 -28 131 -27 123 -72 396 -82 495 -3 33
-8 69 -10 80 -2 11 -4 35 -4 53 -1 17 -4 32 -8 32 -5 0 -46 -26 -93 -58z"/>
</g>
</svg>
