<?xml version="1.0" standalone="no"?>
<!DOCTYPE svg PUBLIC "-//W3C//DTD SVG 20010904//EN"
 "http://www.w3.org/TR/2001/REC-SVG-20010904/DTD/svg10.dtd">
<svg version="1.0" xmlns="http://www.w3.org/2000/svg"
 width="512.000000pt" height="512.000000pt" viewBox="0 0 512.000000 512.000000"
 preserveAspectRatio="xMidYMid meet">
<metadata>
Created by potrace 1.14, written by Peter Selinger 2001-2017
</metadata>
<g transform="translate(0.000000,512.000000) scale(0.100000,-0.100000)"
fill="#000000" stroke="none">
<path d="M1321 4894 c-51 -15 -114 -76 -149 -145 -12 -24 -27 -51 -32 -59 -18
-27 -200 -353 -200 -357 0 -2 -16 -29 -35 -59 -19 -30 -35 -57 -36 -62 -1 -4
-7 -16 -14 -27 -7 -11 -56 -99 -110 -195 -54 -96 -107 -191 -119 -210 -11 -19
-21 -37 -21 -40 0 -3 -19 -36 -41 -75 -37 -62 -168 -293 -261 -460 -67 -119
-86 -168 -86 -214 1 -57 3 -66 31 -116 27 -48 75 -81 134 -94 60 -13 1961 -12
2013 1 100 24 171 119 162 214 -6 61 -13 78 -76 187 -28 49 -51 91 -51 93 0 2
-10 21 -23 42 -22 35 -45 75 -118 210 -18 31 -35 62 -39 67 -4 6 -18 30 -32
55 -14 25 -66 119 -117 209 -51 90 -102 180 -113 200 -10 20 -28 52 -40 71
-11 19 -65 116 -121 215 -55 99 -109 192 -119 208 -11 15 -16 27 -13 27 3 0
-2 12 -13 28 -11 15 -36 59 -57 97 -21 39 -52 89 -68 112 -51 73 -147 104
-236 77z"/>
<path d="M3765 4903 c-76 -8 -177 -28 -245 -48 -78 -23 -213 -85 -241 -111 -8
-8 -19 -14 -23 -14 -10 0 -93 -64 -141 -109 -49 -46 -123 -133 -150 -175 -10
-17 -23 -33 -27 -36 -25 -18 -119 -244 -134 -324 -2 -12 -8 -43 -14 -71 -16
-81 -18 -215 -5 -313 12 -85 61 -271 75 -282 3 -3 12 -21 20 -40 7 -19 26 -54
42 -78 15 -24 28 -46 28 -50 0 -4 10 -19 23 -34 12 -15 40 -48 62 -74 22 -27
51 -58 65 -70 14 -12 43 -38 65 -58 22 -19 55 -43 73 -53 17 -10 32 -21 32
-25 0 -5 6 -8 14 -8 8 0 16 -4 18 -8 9 -23 245 -113 334 -126 21 -4 46 -9 54
-11 8 -2 53 -6 100 -9 327 -15 659 129 860 373 19 24 40 48 45 54 32 36 127
208 136 245 1 4 10 30 20 59 98 285 57 642 -103 887 -21 32 -38 60 -38 63 0 3
-27 37 -61 75 -195 226 -465 357 -764 371 -49 2 -103 2 -120 0z"/>
<path d="M380 2340 c-96 -17 -172 -117 -165 -216 6 -83 24 -105 395 -476 198
-199 359 -365 358 -370 -2 -5 -164 -170 -359 -366 -196 -196 -364 -373 -374
-392 -71 -138 45 -314 200 -305 84 6 105 23 478 395 198 198 363 360 367 360
3 0 170 -164 371 -363 376 -375 386 -384 472 -391 90 -8 197 66 213 147 2 12
6 33 9 47 3 14 -2 50 -11 80 -15 52 -32 71 -377 417 -199 199 -363 366 -365
371 -1 5 159 171 357 369 197 198 367 376 377 394 21 40 23 144 4 180 -19 37
-72 89 -108 106 -45 21 -138 21 -182 -2 -19 -10 -196 -178 -392 -374 -197
-196 -362 -356 -368 -356 -5 0 -171 160 -367 356 -197 196 -372 364 -389 372
-37 19 -96 26 -144 17z"/>
<path d="M2920 2336 c-19 -6 -56 -31 -81 -56 -39 -37 -49 -54 -58 -100 -7 -37
-10 -340 -8 -930 l2 -875 29 -53 c24 -43 39 -57 87 -81 l57 -29 882 0 c571 0
894 3 918 10 55 15 108 58 134 108 l23 45 2 875 c1 513 -2 895 -7 922 -6 27
-20 63 -32 83 -21 31 -78 72 -118 84 -34 10 -1796 7 -1830 -3z"/>
</g>
</svg>
